<svg xmlns="http://www.w3.org/2000/svg" width="50" height="50" viewBox="0 0 500 500">
  <defs>
    <style>
      .cls-1 {
        fill-rule: evenodd;
      }
    </style>
  </defs>
  <path id="JD" class="cls-1" d="M204.252,181.324a15.853,15.853,0,0,0-5.076,2.538A9.091,9.091,0,0,0,196.544,188a17.24,17.24,0,0,0-1.034,4.7q-0.1,1.974-.094,5.546v70.312q0,8.085-4.7,12.972a15.731,15.731,0,0,1-11.844,4.888,17.18,17.18,0,0,1-12.6-5.264q-7.148-7.143-12.032-7.144-5.265,0-11.844,6.768t-6.58,12.408q0,4.327,6.58,11.28l1.5,1.5a28.134,28.134,0,0,0,4.7,3.948,80.756,80.756,0,0,0,7.238,4.512,43.992,43.992,0,0,0,9.964,3.854,46.439,46.439,0,0,0,12.126,1.6q22.181,0,36.472-15.134t14.288-34.874V197.116a43.47,43.47,0,0,0-.376-6.486,18.249,18.249,0,0,0-1.786-5.17,8.2,8.2,0,0,0-4.888-4.042,28.134,28.134,0,0,0-9.118-1.222A26.371,26.371,0,0,0,204.252,181.324Zm138.931,18.518Q322.5,180.2,295.243,180.2q-5.829,0-17.484-.094t-17.3-.094a32.848,32.848,0,0,0-9.588,1.128,8.243,8.243,0,0,0-5.076,3.948,15.129,15.129,0,0,0-1.786,4.888,54.3,54.3,0,0,0-.282,6.58V301.08a48.92,48.92,0,0,0,.376,6.862,13.928,13.928,0,0,0,1.88,5.076,8.582,8.582,0,0,0,5.076,3.666,31.247,31.247,0,0,0,9.212,1.128h34.4q28.764,0,48.974-20.492t20.21-49.068Q363.863,219.488,343.183,199.842Zm-23.5,74.636q-10.9,10.059-24.44,10.058H277.007V213.472h18.048a34.732,34.732,0,0,1,24.91,10.246A33.749,33.749,0,0,1,330.587,249Q330.587,264.421,319.683,274.478Z"/>
</svg>
