<?xml version="1.0" standalone="no"?>
<!DOCTYPE svg PUBLIC "-//W3C//DTD SVG 20010904//EN"
 "http://www.w3.org/TR/2001/REC-SVG-20010904/DTD/svg10.dtd">
<svg version="1.0" xmlns="http://www.w3.org/2000/svg"
 width="260.000000pt" height="260.000000pt" viewBox="0 0 260.000000 260.000000"
 preserveAspectRatio="xMidYMid meet">
<metadata>
Created by potrace 1.11, written by Peter Selinger 2001-2013
</metadata>
<g transform="translate(0.000000,260.000000) scale(0.100000,-0.100000)"
fill="#000000" stroke="none">
<path d="M0 1300 l0 -1300 1300 0 1300 0 0 1300 0 1300 -1300 0 -1300 0 0
-1300z m1780 600 c150 -44 292 -179 345 -330 57 -160 30 -366 -64 -503 -46
-68 -127 -142 -191 -176 -95 -51 -154 -61 -356 -61 -187 0 -237 8 -254 40 -6
12 -10 208 -10 508 0 458 1 491 18 512 26 32 73 38 272 33 132 -3 191 -9 240
-23z m-679 1 l24 -19 0 -394 0 -393 -33 -64 c-126 -241 -410 -291 -599 -105
-82 81 -83 127 -4 206 65 65 93 63 173 -8 48 -43 95 -52 145 -28 71 35 73 45
73 419 0 353 2 368 50 392 40 20 143 17 171 -6z"/>
<path d="M1500 1381 l0 -281 98 0 c86 0 105 3 150 26 162 81 202 300 81 438
-59 66 -112 88 -230 94 l-99 5 0 -282z"/>
</g>
</svg>
